<svg width="131" height="256" viewBox="0 0 131 256" fill="none" xmlns="http://www.w3.org/2000/svg">
  <g class="ballooneon">
    <g class="rays">
      <path class="ray-r" d="M96 132L120 145" stroke="#FFBCBC" stroke-width="3" stroke-linecap="round" stroke-linejoin="round"/>
      <path class="ray-tr" d="M98.5 121.5L129.5 119" stroke="#FFBCBC" stroke-width="3" stroke-linecap="round" stroke-linejoin="round"/>
      <path class="ray-br" d="M92.2424 138.16C91.7782 137.473 90.8457 137.293 90.1595 137.758C89.4734 138.222 89.2934 139.154 89.7576 139.84L92.2424 138.16ZM101.258 156.84C101.722 157.527 102.654 157.707 103.34 157.242C104.027 156.778 104.207 155.846 103.742 155.16L101.258 156.84ZM89.7576 139.84L101.258 156.84L103.742 155.16L92.2424 138.16L89.7576 139.84Z" fill="#FFBCBC"/>
      <path class="ray-l" d="M31.9368 134.282L3 143" stroke="#FFBCBC" stroke-width="3" stroke-linecap="round" stroke-linejoin="round"/>
      <path class="ray-bl" d="M35.5177 143L23.5 158.5" stroke="#FFBCBC" stroke-width="3" stroke-linecap="round" stroke-linejoin="round"/>
      <path class="ray-tl" d="M33.3761 129.826C34.1298 130.17 35.0195 129.838 35.3632 129.084C35.707 128.33 35.3747 127.44 34.6209 127.097L33.3761 129.826ZM10.6224 116.151C9.8687 115.808 8.979 116.14 8.63524 116.894C8.29148 117.648 8.62383 118.537 9.37756 118.881L10.6224 116.151ZM34.6209 127.097L10.6224 116.151L9.37756 118.881L33.3761 129.826L34.6209 127.097Z" fill="#FFBCBC"/>
    </g>
    <path class="balloon" d="M53 129.011L52.0425 130.165C52.3117 130.388 52.6503 130.511 53 130.511V129.011ZM50 147.011L48.5315 146.705C48.4395 147.147 48.5514 147.607 48.8363 147.957C49.1211 148.307 49.5486 148.511 50 148.511V147.011ZM76 147.011V148.511C76.4687 148.511 76.9105 148.291 77.1942 147.918C77.4778 147.545 77.5707 147.061 77.4453 146.609L76 147.011ZM53.9685 135.306C54.1373 134.495 53.6167 133.7 52.8057 133.531C51.9946 133.363 51.2003 133.883 51.0315 134.694L53.9685 135.306ZM53.9575 127.856C47.1248 122.19 36.7783 113.516 27.814 102.921C18.8314 92.3035 11.3818 79.9229 10.1145 66.8657L7.12855 67.1555C8.4828 81.1089 16.3891 94.0616 25.5237 104.858C34.6765 115.677 45.2085 124.498 52.0425 130.165L53.9575 127.856ZM114.511 53.8227C112.036 74.6061 106.114 88.8639 98.273 100.013C90.4089 111.197 80.5673 119.33 70.0558 127.845L71.9442 130.176C82.4327 121.68 92.5911 113.309 100.727 101.739C108.886 90.1361 114.964 75.3939 117.489 54.1773L114.511 53.8227ZM71 127.511H53V130.511H71V127.511ZM10.1145 66.8657C7.56742 40.6221 24.3202 17.1597 48.2385 6.3673L47.0046 3.63279C22.166 14.8404 4.43258 39.378 7.12855 67.1555L10.1145 66.8657ZM117.489 54.1773C120.076 32.4525 108.647 16.9274 93.5713 8.3223C78.5897 -0.229239 59.7335 -2.11072 47.0046 3.63279L48.2385 6.3673C59.888 1.11081 77.7211 2.7293 92.0841 10.9277C106.353 19.0726 116.924 33.5475 114.511 53.8227L117.489 54.1773ZM50 148.511H76V145.511H50V148.511ZM77.4453 146.609L72.4453 128.609L69.5547 129.412L74.5547 147.412L77.4453 146.609ZM51.4685 147.316L53.9685 135.306L51.0315 134.694L48.5315 146.705L51.4685 147.316Z" fill="#8BF8FF"/>
    <path class="string" d="M63 154C59.3333 158.5 52.1 170 52.5 180C53 192.5 73.5 196.5 71 205C68.5 213.5 56.5 218.5 56.5 232C56.5 242.8 60.8333 251.833 63 255" stroke="white" stroke-width="2" stroke-linecap="round" stroke-linejoin="round"/>
  </g>
</svg>
